<mxfile host="65bd71144e">
    <diagram id="9BUqVio4P8imSiQagDei" name="Page-1">
        <mxGraphModel dx="891" dy="988" grid="1" gridSize="10" guides="1" tooltips="1" connect="1" arrows="1" fold="1" page="1" pageScale="1" pageWidth="827" pageHeight="1169" math="0" shadow="0">
            <root>
                <mxCell id="0"/>
                <mxCell id="1" parent="0"/>
                <mxCell id="11" value="SessionProvider" style="edgeStyle=none;html=1;" edge="1" parent="1" source="6" target="9">
                    <mxGeometry relative="1" as="geometry"/>
                </mxCell>
                <mxCell id="12" style="edgeStyle=none;html=1;" edge="1" parent="1" source="6" target="8">
                    <mxGeometry relative="1" as="geometry"/>
                </mxCell>
                <mxCell id="13" value="NextAppProvider" style="edgeLabel;html=1;align=center;verticalAlign=middle;resizable=0;points=[];" vertex="1" connectable="0" parent="12">
                    <mxGeometry x="0.3089" relative="1" as="geometry">
                        <mxPoint as="offset"/>
                    </mxGeometry>
                </mxCell>
                <mxCell id="6" value="app/layout.tsx" style="swimlane;whiteSpace=wrap;html=1;" vertex="1" parent="1">
                    <mxGeometry x="80" y="180" width="280" height="210" as="geometry"/>
                </mxCell>
                <mxCell id="7" value="&lt;div style=&quot;color: rgb(204, 204, 204); background-color: rgb(31, 31, 31); font-family: Menlo, Monaco, &amp;quot;Courier New&amp;quot;, monospace; line-height: 18px;&quot;&gt;&lt;div&gt;&lt;div style=&quot;line-height: 18px;&quot;&gt;&lt;div&gt;&lt;span style=&quot;color: #c586c0;&quot;&gt;import&lt;/span&gt; { &lt;span style=&quot;color: #9cdcfe;&quot;&gt;auth&lt;/span&gt; } &lt;span style=&quot;color: #c586c0;&quot;&gt;from&lt;/span&gt; &lt;span style=&quot;color: #ce9178;&quot;&gt;'../auth'&lt;/span&gt;;&lt;/div&gt;&lt;div&gt;&lt;span style=&quot;color: #c586c0;&quot;&gt;import&lt;/span&gt; &lt;span style=&quot;color: #9cdcfe;&quot;&gt;theme&lt;/span&gt; &lt;span style=&quot;color: #c586c0;&quot;&gt;from&lt;/span&gt; &lt;span style=&quot;color: #ce9178;&quot;&gt;'../theme'&lt;/span&gt;;&lt;/div&gt;&lt;/div&gt;&lt;span style=&quot;color: rgb(86, 156, 214);&quot;&gt;const&lt;/span&gt;&lt;span style=&quot;&quot;&gt; &lt;/span&gt;&lt;span style=&quot;color: rgb(79, 193, 255);&quot;&gt;session&lt;/span&gt;&lt;span style=&quot;&quot;&gt; &lt;/span&gt;&lt;span style=&quot;color: rgb(212, 212, 212);&quot;&gt;=&lt;/span&gt;&lt;span style=&quot;&quot;&gt; &lt;/span&gt;&lt;span style=&quot;color: rgb(197, 134, 192);&quot;&gt;await&lt;/span&gt;&lt;span style=&quot;&quot;&gt; &lt;/span&gt;&lt;span style=&quot;color: rgb(220, 220, 170);&quot;&gt;auth&lt;/span&gt;&lt;span style=&quot;&quot;&gt;();&lt;br&gt;&lt;/span&gt;&lt;span style=&quot;color: #808080;&quot;&gt;&amp;lt;&lt;/span&gt;&lt;span style=&quot;color: #4ec9b0;&quot;&gt;SessionProvider&lt;/span&gt; &lt;span style=&quot;color: #9cdcfe;&quot;&gt;session&lt;/span&gt;&lt;span style=&quot;color: #d4d4d4;&quot;&gt;=&lt;/span&gt;&lt;span style=&quot;color: #569cd6;&quot;&gt;{&lt;/span&gt;&lt;span style=&quot;color: #4fc1ff;&quot;&gt;session&lt;/span&gt;&lt;span style=&quot;color: #569cd6;&quot;&gt;}&lt;/span&gt;&lt;span style=&quot;color: #808080;&quot;&gt;&amp;gt;&lt;/span&gt;&lt;/div&gt;&lt;div&gt;          &lt;span style=&quot;color: #808080;&quot;&gt;&amp;nbsp; &amp;lt;&lt;/span&gt;&lt;span style=&quot;color: #4ec9b0;&quot;&gt;AppRouterCacheProvider&lt;/span&gt;&lt;span style=&quot;color: #808080;&quot;&gt;&amp;gt;&lt;/span&gt;&lt;/div&gt;&lt;div&gt;          &lt;/div&gt;&lt;div&gt;            &lt;span style=&quot;color: #808080;&quot;&gt;&amp;nbsp; &amp;nbsp; &amp;lt;&lt;/span&gt;&lt;span style=&quot;color: #4ec9b0;&quot;&gt;NextAppProvider&lt;/span&gt;&lt;/div&gt;&lt;div&gt;              &lt;span style=&quot;color: #9cdcfe;&quot;&gt;&amp;nbsp; &amp;nbsp; &amp;nbsp; session&lt;/span&gt;&lt;span style=&quot;color: #d4d4d4;&quot;&gt;=&lt;/span&gt;&lt;span style=&quot;color: #569cd6;&quot;&gt;{&lt;/span&gt;&lt;span style=&quot;color: #4fc1ff;&quot;&gt;session&lt;/span&gt;&lt;span style=&quot;color: #569cd6;&quot;&gt;}&lt;/span&gt;&lt;/div&gt;&lt;div&gt;&lt;span style=&quot;color: #9cdcfe;&quot;&gt;&amp;nbsp; &amp;nbsp; &amp;nbsp; theme&lt;/span&gt;&lt;span style=&quot;color: #d4d4d4;&quot;&gt;=&lt;/span&gt;&lt;span style=&quot;color: #569cd6;&quot;&gt;{&lt;/span&gt;&lt;span style=&quot;color: #4fc1ff;&quot;&gt;theme&lt;/span&gt;&lt;span style=&quot;color: #569cd6;&quot;&gt;}&lt;/span&gt;&lt;span style=&quot;color: rgb(128, 128, 128);&quot;&gt;&amp;gt;&lt;br&gt;&amp;nbsp; &amp;nbsp; &amp;nbsp; &amp;nbsp;&amp;nbsp;&lt;/span&gt;&lt;span style=&quot;color: rgb(86, 156, 214);&quot;&gt;{&lt;/span&gt;&lt;span style=&quot;color: rgb(156, 220, 254);&quot;&gt;props&lt;/span&gt;&lt;span style=&quot;color: rgb(212, 212, 212);&quot;&gt;.&lt;/span&gt;&lt;span style=&quot;color: rgb(156, 220, 254);&quot;&gt;children&lt;/span&gt;&lt;span style=&quot;color: rgb(86, 156, 214);&quot;&gt;}&lt;/span&gt;&lt;/div&gt;&lt;/div&gt;" style="text;html=1;align=left;verticalAlign=middle;resizable=0;points=[];autosize=1;strokeColor=none;fillColor=none;" vertex="1" parent="6">
                    <mxGeometry y="25" width="280" height="180" as="geometry"/>
                </mxCell>
                <mxCell id="8" value="@toolpad/core" style="shape=process;whiteSpace=wrap;html=1;backgroundOutline=1;" vertex="1" parent="1">
                    <mxGeometry x="390" y="30" width="120" height="60" as="geometry"/>
                </mxCell>
                <mxCell id="9" value="next-auth/react" style="shape=process;whiteSpace=wrap;html=1;backgroundOutline=1;" vertex="1" parent="1">
                    <mxGeometry x="280" y="460" width="120" height="60" as="geometry"/>
                </mxCell>
                <mxCell id="16" style="edgeStyle=none;html=1;" edge="1" parent="1" source="14" target="8">
                    <mxGeometry relative="1" as="geometry"/>
                </mxCell>
                <mxCell id="17" value="DashboardLayout" style="edgeLabel;html=1;align=center;verticalAlign=middle;resizable=0;points=[];" vertex="1" connectable="0" parent="16">
                    <mxGeometry x="0.4181" y="-2" relative="1" as="geometry">
                        <mxPoint as="offset"/>
                    </mxGeometry>
                </mxCell>
                <mxCell id="18" style="edgeStyle=none;html=1;" edge="1" parent="1" source="14" target="8">
                    <mxGeometry relative="1" as="geometry">
                        <Array as="points">
                            <mxPoint x="580" y="230"/>
                        </Array>
                    </mxGeometry>
                </mxCell>
                <mxCell id="19" value="PageContainer" style="edgeLabel;html=1;align=center;verticalAlign=middle;resizable=0;points=[];" vertex="1" connectable="0" parent="18">
                    <mxGeometry x="-0.3531" relative="1" as="geometry">
                        <mxPoint as="offset"/>
                    </mxGeometry>
                </mxCell>
                <mxCell id="14" value="app/(dashboard)/layout.tsx" style="swimlane;whiteSpace=wrap;html=1;" vertex="1" parent="1">
                    <mxGeometry x="450" y="230" width="180" height="130" as="geometry"/>
                </mxCell>
                <mxCell id="15" value="&lt;div style=&quot;color: rgb(204, 204, 204); background-color: rgb(31, 31, 31); font-family: Menlo, Monaco, &amp;quot;Courier New&amp;quot;, monospace; line-height: 18px;&quot;&gt;&lt;div style=&quot;line-height: 18px;&quot;&gt;&lt;div style=&quot;line-height: 18px;&quot;&gt;&lt;div&gt;&lt;span style=&quot;color: #808080;&quot;&gt;&amp;lt;&lt;/span&gt;&lt;span style=&quot;color: #4ec9b0;&quot;&gt;DashboardLayout&lt;/span&gt;&lt;span style=&quot;color: #808080;&quot;&gt;&amp;gt;&lt;/span&gt;&lt;/div&gt;&lt;div&gt;&lt;span style=&quot;color: #808080;&quot;&gt;&amp;nbsp; &amp;lt;&lt;/span&gt;&lt;span style=&quot;color: #4ec9b0;&quot;&gt;PageContainer&lt;/span&gt;&lt;span style=&quot;color: #808080;&quot;&gt;&amp;gt;&lt;br&gt;&lt;/span&gt;&lt;span style=&quot;color: #569cd6;&quot;&gt;&amp;nbsp; &amp;nbsp;{&lt;/span&gt;&lt;span style=&quot;color: #9cdcfe;&quot;&gt;props&lt;/span&gt;&lt;span style=&quot;color: #d4d4d4;&quot;&gt;.&lt;/span&gt;&lt;span style=&quot;color: #9cdcfe;&quot;&gt;children&lt;/span&gt;&lt;span style=&quot;color: #569cd6;&quot;&gt;}&lt;br&gt;&lt;/span&gt;&lt;span style=&quot;color: #808080;&quot;&gt;&amp;nbsp; &amp;lt;/&lt;/span&gt;&lt;span style=&quot;color: #4ec9b0;&quot;&gt;PageContainer&lt;/span&gt;&lt;span style=&quot;color: #808080;&quot;&gt;&amp;gt;&lt;/span&gt;&lt;/div&gt;&lt;div&gt;    &lt;span style=&quot;color: #808080;&quot;&gt;&amp;lt;/&lt;/span&gt;&lt;span style=&quot;color: #4ec9b0;&quot;&gt;DashboardLayout&lt;/span&gt;&lt;span style=&quot;color: #808080;&quot;&gt;&amp;gt;&lt;/span&gt;&lt;/div&gt;&lt;/div&gt;&lt;/div&gt;&lt;/div&gt;" style="text;html=1;align=left;verticalAlign=middle;resizable=0;points=[];autosize=1;strokeColor=none;fillColor=none;" vertex="1" parent="14">
                    <mxGeometry y="20" width="160" height="100" as="geometry"/>
                </mxCell>
                <mxCell id="30" value="session = auth" style="edgeStyle=none;html=1;" edge="1" parent="1" source="20" target="23">
                    <mxGeometry relative="1" as="geometry"/>
                </mxCell>
                <mxCell id="20" value="app/(dashboard)/page.tsx" style="swimlane;whiteSpace=wrap;html=1;" vertex="1" parent="1">
                    <mxGeometry x="660" y="230" width="400" height="130" as="geometry"/>
                </mxCell>
                <mxCell id="21" value="&lt;div style=&quot;color: rgb(204, 204, 204); background-color: rgb(31, 31, 31); font-family: Menlo, Monaco, &amp;quot;Courier New&amp;quot;, monospace; line-height: 18px;&quot;&gt;&lt;div style=&quot;line-height: 18px;&quot;&gt;&lt;div style=&quot;line-height: 18px;&quot;&gt;&lt;div style=&quot;line-height: 18px;&quot;&gt;&lt;div&gt;&lt;span style=&quot;color: #569cd6;&quot;&gt;const&lt;/span&gt; &lt;span style=&quot;color: #4fc1ff;&quot;&gt;session&lt;/span&gt; &lt;span style=&quot;color: #d4d4d4;&quot;&gt;=&lt;/span&gt; &lt;span style=&quot;color: #c586c0;&quot;&gt;await&lt;/span&gt; &lt;span style=&quot;color: #dcdcaa;&quot;&gt;auth&lt;/span&gt;();&lt;/div&gt;&lt;div&gt;      &lt;span style=&quot;color: #808080;&quot;&gt;&amp;lt;&lt;/span&gt;&lt;span style=&quot;color: #4ec9b0;&quot;&gt;Typography&lt;/span&gt;&lt;span style=&quot;color: #808080;&quot;&gt;&amp;gt;&lt;/span&gt;&lt;/div&gt;&lt;div&gt;        Welcome to Toolpad, &lt;span style=&quot;color: #569cd6;&quot;&gt;{&lt;/span&gt;&lt;span style=&quot;color: #4fc1ff;&quot;&gt;session&lt;/span&gt;&lt;span style=&quot;color: #d4d4d4;&quot;&gt;?.&lt;/span&gt;&lt;span style=&quot;color: #9cdcfe;&quot;&gt;user&lt;/span&gt;&lt;span style=&quot;color: #d4d4d4;&quot;&gt;?.&lt;/span&gt;&lt;span style=&quot;color: #9cdcfe;&quot;&gt;name&lt;/span&gt;&lt;span style=&quot;color: #d4d4d4;&quot;&gt; || &lt;/span&gt;&lt;span style=&quot;color: #ce9178;&quot;&gt;'User'&lt;/span&gt;&lt;span style=&quot;color: #569cd6;&quot;&gt;}&lt;/span&gt;!&lt;/div&gt;&lt;div&gt;      &lt;span style=&quot;color: #808080;&quot;&gt;&amp;lt;/&lt;/span&gt;&lt;span style=&quot;color: #4ec9b0;&quot;&gt;Typography&lt;/span&gt;&lt;span style=&quot;color: #808080;&quot;&gt;&amp;gt;&lt;/span&gt;&lt;/div&gt;&lt;/div&gt;&lt;/div&gt;&lt;/div&gt;&lt;/div&gt;" style="text;html=1;align=left;verticalAlign=middle;resizable=0;points=[];autosize=1;strokeColor=none;fillColor=none;" vertex="1" parent="20">
                    <mxGeometry y="25" width="400" height="90" as="geometry"/>
                </mxCell>
                <mxCell id="28" style="edgeStyle=none;html=1;" edge="1" parent="1" source="23" target="9">
                    <mxGeometry relative="1" as="geometry"/>
                </mxCell>
                <mxCell id="29" value="NextAuth" style="edgeLabel;html=1;align=center;verticalAlign=middle;resizable=0;points=[];" vertex="1" connectable="0" parent="28">
                    <mxGeometry x="0.234" y="4" relative="1" as="geometry">
                        <mxPoint as="offset"/>
                    </mxGeometry>
                </mxCell>
                <mxCell id="23" value="auth.ts" style="swimlane;whiteSpace=wrap;html=1;" vertex="1" parent="1">
                    <mxGeometry x="520" y="440" width="600" height="90" as="geometry"/>
                </mxCell>
                <mxCell id="24" value="&lt;div style=&quot;background-color: rgb(31, 31, 31); font-family: Menlo, Monaco, &amp;quot;Courier New&amp;quot;, monospace; line-height: 18px;&quot;&gt;&lt;div style=&quot;line-height: 18px;&quot;&gt;&lt;div style=&quot;line-height: 18px;&quot;&gt;&lt;div style=&quot;line-height: 18px;&quot;&gt;&lt;div style=&quot;line-height: 18px;&quot;&gt;&lt;div style=&quot;&quot;&gt;&lt;span style=&quot;color: rgb(86, 156, 214);&quot;&gt;const&lt;/span&gt; &lt;span style=&quot;color: rgb(79, 193, 255);&quot;&gt;providers&lt;/span&gt;&lt;span style=&quot;color: rgb(212, 212, 212);&quot;&gt;:&lt;/span&gt;&lt;font color=&quot;#cccccc&quot;&gt;&amp;nbsp;&lt;/font&gt;&lt;font color=&quot;#4ec9b0&quot;&gt;=&lt;/font&gt;&lt;font color=&quot;#cccccc&quot;&gt;&amp;nbsp;[&lt;/font&gt;&lt;span style=&quot;color: rgb(220, 220, 170);&quot;&gt;Github&lt;/span&gt;&lt;span style=&quot;color: rgb(204, 204, 204);&quot;&gt;({&lt;/span&gt;&lt;span style=&quot;color: rgb(156, 220, 254);&quot;&gt;settings&lt;/span&gt;&lt;span style=&quot;color: rgb(204, 204, 204);&quot;&gt;}),&amp;nbsp;&lt;/span&gt;&lt;span style=&quot;color: rgb(220, 220, 170);&quot;&gt;Keycloak&lt;/span&gt;&lt;span style=&quot;color: rgb(204, 204, 204);&quot;&gt;({&lt;/span&gt;&lt;span style=&quot;color: rgb(156, 220, 254);&quot;&gt;settings&lt;/span&gt;&lt;span style=&quot;color: rgb(204, 204, 204);&quot;&gt;})&lt;/span&gt;&lt;span style=&quot;color: rgb(204, 204, 204);&quot;&gt;];&lt;br&gt;&lt;/span&gt;&lt;div style=&quot;color: rgb(204, 204, 204); line-height: 18px;&quot;&gt;&lt;span style=&quot;color: rgb(197, 134, 192);&quot;&gt;export&lt;/span&gt;&lt;span style=&quot;&quot;&gt; &lt;/span&gt;&lt;span style=&quot;color: rgb(86, 156, 214);&quot;&gt;const&lt;/span&gt;&lt;span style=&quot;&quot;&gt; &lt;/span&gt;&lt;span style=&quot;color: rgb(79, 193, 255);&quot;&gt;providerMap&lt;/span&gt;&lt;span style=&quot;&quot;&gt; &lt;/span&gt;&lt;span style=&quot;color: rgb(212, 212, 212);&quot;&gt;=&lt;/span&gt;&lt;span style=&quot;&quot;&gt; &lt;/span&gt;&lt;span style=&quot;color: rgb(79, 193, 255);&quot;&gt;providers&lt;/span&gt;&lt;span style=&quot;&quot;&gt;.&lt;/span&gt;&lt;span style=&quot;color: rgb(220, 220, 170);&quot;&gt;map&lt;/span&gt;&lt;span style=&quot;&quot;&gt;((&lt;/span&gt;&lt;span style=&quot;color: rgb(156, 220, 254);&quot;&gt;provider&lt;/span&gt;&lt;span style=&quot;&quot;&gt;)=&amp;gt;&lt;/span&gt;&lt;span style=&quot;color: rgb(156, 220, 254);&quot;&gt;&amp;nbsp;implementation&lt;/span&gt;;&lt;span style=&quot;&quot;&gt;&lt;br&gt;&lt;/span&gt;&lt;span style=&quot;color: #c586c0;&quot;&gt;export&lt;/span&gt; &lt;span style=&quot;color: #569cd6;&quot;&gt;const&lt;/span&gt; { &lt;span style=&quot;color: #4fc1ff;&quot;&gt;handlers&lt;/span&gt;, &lt;span style=&quot;color: #dcdcaa;&quot;&gt;auth&lt;/span&gt;, &lt;span style=&quot;color: #dcdcaa;&quot;&gt;signIn&lt;/span&gt;, &lt;span style=&quot;color: #dcdcaa;&quot;&gt;signOut&lt;/span&gt; } &lt;span style=&quot;color: #d4d4d4;&quot;&gt;=&lt;/span&gt; &lt;span style=&quot;color: #dcdcaa;&quot;&gt;NextAuth&lt;/span&gt;({&lt;span style=&quot;color: rgb(156, 220, 254);&quot;&gt;implementation&lt;/span&gt;})&lt;/div&gt;&lt;/div&gt;&lt;/div&gt;&lt;/div&gt;&lt;/div&gt;&lt;/div&gt;&lt;/div&gt;" style="text;html=1;align=left;verticalAlign=middle;resizable=0;points=[];autosize=1;strokeColor=none;fillColor=none;" vertex="1" parent="23">
                    <mxGeometry x="10" y="20" width="580" height="70" as="geometry"/>
                </mxCell>
                <mxCell id="25" style="edgeStyle=none;html=1;" edge="1" parent="1" source="7" target="23">
                    <mxGeometry relative="1" as="geometry"/>
                </mxCell>
                <mxCell id="26" value="session = auth" style="edgeLabel;html=1;align=center;verticalAlign=middle;resizable=0;points=[];" vertex="1" connectable="0" parent="25">
                    <mxGeometry x="0.0993" y="-2" relative="1" as="geometry">
                        <mxPoint y="1" as="offset"/>
                    </mxGeometry>
                </mxCell>
                <mxCell id="33" style="edgeStyle=none;html=1;" edge="1" parent="1" source="31" target="23">
                    <mxGeometry relative="1" as="geometry"/>
                </mxCell>
                <mxCell id="34" value="providerMap" style="edgeLabel;html=1;align=center;verticalAlign=middle;resizable=0;points=[];" vertex="1" connectable="0" parent="33">
                    <mxGeometry x="0.3112" y="-1" relative="1" as="geometry">
                        <mxPoint as="offset"/>
                    </mxGeometry>
                </mxCell>
                <mxCell id="31" value="app/auth/signin/page.tsx" style="swimlane;whiteSpace=wrap;html=1;" vertex="1" parent="1">
                    <mxGeometry x="210" y="585" width="240" height="145" as="geometry"/>
                </mxCell>
                <mxCell id="32" value="&lt;div style=&quot;color: rgb(204, 204, 204); background-color: rgb(31, 31, 31); font-family: Menlo, Monaco, &amp;quot;Courier New&amp;quot;, monospace; line-height: 18px;&quot;&gt;&lt;div style=&quot;line-height: 18px;&quot;&gt;&lt;div style=&quot;line-height: 18px;&quot;&gt;&lt;div&gt;&lt;span style=&quot;color: rgb(197, 134, 192);&quot;&gt;import&lt;/span&gt;&lt;span style=&quot;&quot;&gt; &lt;/span&gt;&lt;span style=&quot;color: rgb(156, 220, 254);&quot;&gt;signIn&lt;/span&gt;&lt;span style=&quot;&quot;&gt; &lt;/span&gt;&lt;span style=&quot;color: rgb(197, 134, 192);&quot;&gt;from&lt;/span&gt;&lt;span style=&quot;&quot;&gt; &lt;/span&gt;&lt;span style=&quot;color: rgb(206, 145, 120);&quot;&gt;'./actions'&lt;/span&gt;&lt;span style=&quot;&quot;&gt;;&lt;br&gt;&lt;/span&gt;&lt;span style=&quot;color: #808080;&quot;&gt;&lt;br&gt;&lt;/span&gt;&lt;/div&gt;&lt;div&gt;&lt;span style=&quot;color: #808080;&quot;&gt;&amp;lt;&lt;/span&gt;&lt;span style=&quot;color: #4ec9b0;&quot;&gt;SignInPage&lt;/span&gt;&lt;/div&gt;&lt;div&gt;&lt;span style=&quot;color: #9cdcfe;&quot;&gt;&amp;nbsp; providers&lt;/span&gt;&lt;span style=&quot;color: #d4d4d4;&quot;&gt;=&lt;/span&gt;&lt;span style=&quot;color: #569cd6;&quot;&gt;{&lt;/span&gt;&lt;span style=&quot;color: #4fc1ff;&quot;&gt;providerMap&lt;/span&gt;&lt;span style=&quot;color: #569cd6;&quot;&gt;}&lt;/span&gt;&lt;/div&gt;&lt;div&gt;&lt;span style=&quot;color: #9cdcfe;&quot;&gt;&amp;nbsp; signIn&lt;/span&gt;&lt;span style=&quot;color: #d4d4d4;&quot;&gt;=&lt;/span&gt;&lt;span style=&quot;color: #569cd6;&quot;&gt;{&lt;/span&gt;&lt;span style=&quot;color: #dcdcaa;&quot;&gt;signIn&lt;/span&gt;&lt;span style=&quot;color: #569cd6;&quot;&gt;}&lt;/span&gt;&lt;/div&gt;&lt;div&gt;    &lt;span style=&quot;color: #808080;&quot;&gt;/&amp;gt;&lt;/span&gt;&lt;/div&gt;&lt;/div&gt;&lt;/div&gt;&lt;/div&gt;" style="text;html=1;align=left;verticalAlign=middle;resizable=0;points=[];autosize=1;strokeColor=none;fillColor=none;" vertex="1" parent="31">
                    <mxGeometry y="22.5" width="250" height="120" as="geometry"/>
                </mxCell>
                <mxCell id="35" value="app/auth/signin/actions.ts" style="swimlane;whiteSpace=wrap;html=1;" vertex="1" parent="1">
                    <mxGeometry x="550" y="680" width="330" height="90" as="geometry"/>
                </mxCell>
                <mxCell id="36" value="&lt;div style=&quot;color: rgb(204, 204, 204); background-color: rgb(31, 31, 31); font-family: Menlo, Monaco, &amp;quot;Courier New&amp;quot;, monospace; line-height: 18px;&quot;&gt;&lt;div style=&quot;line-height: 18px;&quot;&gt;&lt;div style=&quot;line-height: 18px;&quot;&gt;&lt;div style=&quot;line-height: 18px;&quot;&gt;&lt;div&gt;&lt;span style=&quot;color: #c586c0;&quot;&gt;export&lt;/span&gt; &lt;span style=&quot;color: #c586c0;&quot;&gt;default&lt;/span&gt; &lt;span style=&quot;color: #569cd6;&quot;&gt;async&lt;/span&gt; &lt;span style=&quot;color: #569cd6;&quot;&gt;function&lt;/span&gt; &lt;span style=&quot;color: #dcdcaa;&quot;&gt;serverSignIn&lt;/span&gt;(&lt;br&gt;&lt;span style=&quot;color: #9cdcfe;&quot;&gt;&amp;nbsp; provider&lt;/span&gt;, &lt;span style=&quot;color: #9cdcfe;&quot;&gt;formData&lt;/span&gt;, &lt;span style=&quot;color: #9cdcfe;&quot;&gt;callbackUrl&lt;/span&gt;) {&lt;/div&gt;&lt;div&gt;&lt;span style=&quot;color: #c586c0;&quot;&gt;&amp;nbsp; &amp;nbsp; return&lt;/span&gt; &lt;span style=&quot;color: #c586c0;&quot;&gt;await&lt;/span&gt; &lt;span style=&quot;color: #dcdcaa;&quot;&gt;signIn&lt;/span&gt;(&lt;span style=&quot;color: rgb(156, 220, 254);&quot;&gt;implementation ...&lt;/span&gt;&lt;/div&gt;&lt;/div&gt;&lt;/div&gt;&lt;/div&gt;&lt;/div&gt;" style="text;html=1;align=left;verticalAlign=middle;resizable=0;points=[];autosize=1;strokeColor=none;fillColor=none;" vertex="1" parent="35">
                    <mxGeometry y="20" width="330" height="70" as="geometry"/>
                </mxCell>
                <mxCell id="37" style="edgeStyle=none;html=1;" edge="1" parent="1" source="32" target="35">
                    <mxGeometry relative="1" as="geometry"/>
                </mxCell>
                <mxCell id="38" value="signIn" style="edgeLabel;html=1;align=center;verticalAlign=middle;resizable=0;points=[];" vertex="1" connectable="0" parent="37">
                    <mxGeometry x="0.3133" y="-1" relative="1" as="geometry">
                        <mxPoint as="offset"/>
                    </mxGeometry>
                </mxCell>
                <mxCell id="40" value="app/api/auth/[...nextAuth]/route.ts" style="swimlane;whiteSpace=wrap;html=1;" vertex="1" parent="1">
                    <mxGeometry x="970" y="585" width="340" height="90" as="geometry"/>
                </mxCell>
                <mxCell id="41" value="&lt;div style=&quot;color: rgb(204, 204, 204); background-color: rgb(31, 31, 31); font-family: Menlo, Monaco, &amp;quot;Courier New&amp;quot;, monospace; line-height: 18px;&quot;&gt;&lt;div style=&quot;line-height: 18px;&quot;&gt;&lt;div style=&quot;line-height: 18px;&quot;&gt;&lt;div style=&quot;line-height: 18px;&quot;&gt;&lt;div style=&quot;line-height: 18px;&quot;&gt;&lt;div&gt;&lt;span style=&quot;color: #c586c0;&quot;&gt;import&lt;/span&gt; { &lt;span style=&quot;color: #9cdcfe;&quot;&gt;handlers&lt;/span&gt; } &lt;span style=&quot;color: #c586c0;&quot;&gt;from&lt;/span&gt; &lt;span style=&quot;color: #ce9178;&quot;&gt;'../../../../auth'&lt;/span&gt;;&lt;/div&gt;&lt;div&gt;&lt;span style=&quot;color: #c586c0;&quot;&gt;export&lt;/span&gt; &lt;span style=&quot;color: #569cd6;&quot;&gt;const&lt;/span&gt; { &lt;span style=&quot;color: #dcdcaa;&quot;&gt;GET&lt;/span&gt;, &lt;span style=&quot;color: #dcdcaa;&quot;&gt;POST&lt;/span&gt; } &lt;span style=&quot;color: #d4d4d4;&quot;&gt;=&lt;/span&gt; &lt;span style=&quot;color: #4fc1ff;&quot;&gt;handlers&lt;/span&gt;;&lt;/div&gt;&lt;br&gt;&lt;/div&gt;&lt;/div&gt;&lt;/div&gt;&lt;/div&gt;&lt;/div&gt;" style="text;html=1;align=left;verticalAlign=middle;resizable=0;points=[];autosize=1;strokeColor=none;fillColor=none;" vertex="1" parent="40">
                    <mxGeometry y="20" width="340" height="70" as="geometry"/>
                </mxCell>
                <mxCell id="42" value="app/(dashboard)/orders/page.tsx" style="swimlane;whiteSpace=wrap;html=1;" vertex="1" parent="1">
                    <mxGeometry x="1150" y="130" width="340" height="90" as="geometry"/>
                </mxCell>
                <mxCell id="43" value="&lt;div style=&quot;color: rgb(204, 204, 204); background-color: rgb(31, 31, 31); font-family: Menlo, Monaco, &amp;quot;Courier New&amp;quot;, monospace; line-height: 18px;&quot;&gt;&lt;div style=&quot;line-height: 18px;&quot;&gt;&lt;div style=&quot;line-height: 18px;&quot;&gt;&lt;div style=&quot;line-height: 18px;&quot;&gt;&lt;div style=&quot;line-height: 18px;&quot;&gt;&lt;div&gt;&lt;div style=&quot;line-height: 18px;&quot;&gt;&lt;div&gt;&lt;span style=&quot;color: #808080;&quot;&gt;&amp;lt;&lt;/span&gt;&lt;span style=&quot;color: #4ec9b0;&quot;&gt;Typography&lt;/span&gt;&lt;span style=&quot;color: #808080;&quot;&gt;&amp;gt;&lt;/span&gt;&lt;/div&gt;&lt;div&gt;&amp;nbsp; Welcome to the Toolpad orders!&lt;/div&gt;&lt;div&gt;    &lt;span style=&quot;color: #808080;&quot;&gt;&amp;lt;/&lt;/span&gt;&lt;span style=&quot;color: #4ec9b0;&quot;&gt;Typography&lt;/span&gt;&lt;span style=&quot;color: #808080;&quot;&gt;&amp;gt;&lt;/span&gt;&lt;/div&gt;&lt;/div&gt;&lt;/div&gt;&lt;/div&gt;&lt;/div&gt;&lt;/div&gt;&lt;/div&gt;&lt;/div&gt;" style="text;html=1;align=left;verticalAlign=middle;resizable=0;points=[];autosize=1;strokeColor=none;fillColor=none;" vertex="1" parent="42">
                    <mxGeometry y="20" width="250" height="70" as="geometry"/>
                </mxCell>
            </root>
        </mxGraphModel>
    </diagram>
</mxfile>